<?xml version="1.0" standalone="no"?><!DOCTYPE svg PUBLIC "-//W3C//DTD SVG 1.1//EN" "http://www.w3.org/Graphics/SVG/1.1/DTD/svg11.dtd"><svg t="1570266148279" class="icon" viewBox="0 0 1024 1024" version="1.1" xmlns="http://www.w3.org/2000/svg" p-id="2525" xmlns:xlink="http://www.w3.org/1999/xlink" width="200" height="200"><defs><style type="text/css"></style></defs><path d="M829.866667 567.04L746.666667 512l83.2-55.04m-285.013334 344.32v-154.026667l143.36-95.573333 115.2 77.226667M512 590.08L395.093333 512 512 433.92 628.906667 512m-149.76 289.28l-258.56-172.373333 115.2-77.226667 143.36 95.573333m-285.013334-190.293333L277.333333 512l-83.2 55.04m285.013334-344.32v154.026667l-143.36 95.573333-115.2-77.226667m324.266666-172.373333l258.56 172.373333-115.2 77.226667-143.36-95.573333m351.146667 14.08v-1.706667c0-0.853333 0-1.706667-1.28-2.56 0-0.426667 0-1.28-0.426667-2.56 0 0-0.426667 0-0.853333-1.706667 0-0.426667-0.426667-0.853333-0.853333-1.28 0-0.853333-0.426667-1.706667-0.853334-2.133333-0.426667-0.853333-0.853333-1.28-0.853333-1.706667-0.426667-0.853333-1.28-1.28-1.706667-2.133333-0.426667-0.426667-0.426667-0.853333-0.853333-1.28a1.706667 1.706667 0 0 0-1.706667-1.706667l-1.28-1.28a7.509333 7.509333 0 0 0-2.133333-1.706666l-1.28-1.28c-0.426667 0-0.426667 0-0.426667-0.426667l-351.146666-233.813333a33.664 33.664 0 0 0-36.693334 0L142.506667 367.36c0 0.426667 0 0.426667-0.426667 0.426667l-1.28 1.28c-0.853333 0.426667-1.28 0.853333-2.133333 1.706666l-1.28 1.28-1.706667 1.706667c-0.426667 0.426667-0.426667 0.853333-0.853333 1.28-0.426667 0.853333-1.28 1.28-1.706667 2.133333 0 0.426667-0.426667 0.853333-0.853333 1.706667-0.426667 0.426667-0.853333 1.28-0.853334 2.133333-0.426667 0.426667-0.853333 0.853333-0.853333 1.28-0.426667 1.706667-0.426667 1.706667-0.853333 1.706667-0.426667 1.28-0.426667 2.133333-0.426667 2.56C128 387.413333 128 388.266667 128 389.12v245.76c0 0.853333 0 1.706667 1.28 2.56 0 0.426667 0 1.28 0.426667 2.56 0.426667 0 0.426667 0 0.853333 1.706667 0 0.426667 0.426667 0.853333 0.853333 1.28 0 0.853333 0.426667 1.706667 0.853334 2.133333 0.426667 0.853333 0.853333 1.28 0.853333 1.706667 0.426667 0.853333 1.28 1.28 1.706667 2.133333 0.426667 0.426667 0.426667 0.853333 0.853333 1.28 0.853333 0.426667 1.28 1.28 1.706667 1.706667l1.28 1.28c0.853333 0.853333 1.28 1.28 2.133333 1.706666l1.28 1.28c0.426667 0 0.426667 0 0.426667 0.426667l351.146666 233.813333c5.546667 3.84 11.946667 5.546667 18.346667 5.546667 6.4 0 12.8-1.706667 18.346667-5.546667l351.146666-233.813333c0-0.426667 0-0.426667 0.426667-0.426667l1.28-1.28c0.853333-0.426667 1.28-0.853333 2.133333-1.706666l1.28-1.28c0.426667-0.426667 0.853333-1.28 1.706667-1.706667 0.426667-0.426667 0.426667-0.853333 0.853333-1.28 0.426667-0.853333 1.28-1.28 1.706667-2.133333 0-0.426667 0.426667-0.853333 0.853333-1.706667 0.426667-0.426667 0.853333-1.28 0.853334-2.133333 0.426667-0.426667 0.853333-0.853333 0.853333-1.28 0.426667-1.706667 0.853333-1.706667 0.853333-1.706667 0.426667-1.28 0.426667-2.133333 0.426667-2.56 1.28-0.853333 1.28-1.706667 1.28-2.56v-1.706667-238.08-4.266666z" fill="" p-id="2526"></path></svg>