<?xml version="1.0" standalone="no"?><!DOCTYPE svg PUBLIC "-//W3C//DTD SVG 1.1//EN" "http://www.w3.org/Graphics/SVG/1.1/DTD/svg11.dtd"><svg t="1562853179354" class="icon" viewBox="0 0 1024 1024" version="1.1" xmlns="http://www.w3.org/2000/svg" p-id="2366" xmlns:xlink="http://www.w3.org/1999/xlink" width="200" height="200"><defs><style type="text/css"></style></defs><path d="M154.383755 460.752015q-4.57457-10.844611-4.57457-29.718713 0-11.420431 6.270041-27.991253t13.723711-25.719963q-0.57582-12.572071 4.28666-30.262543t12.859981-24.568322q0-79.399188 52.847485-164.812496t124.249172-119.674602q79.399188-37.716214 185.094158-37.716214 75.976257 0 151.952515 31.414183 27.991253 11.996251 51.407935 27.415433t40.563324 31.990003 31.414183 38.835864 23.992502 42.258794 18.554202 48.272915 14.555451 51.120025 12.572071 55.982505l0.57582 2.84711q31.414183 47.409185 31.414183 85.701218 0 7.997501-5.150391 22.840862t-5.150391 21.721212q0 0.57582 0.86373 2.01537t2.01537 2.84711 1.15164 2.01537q43.986254 65.131646 68.842487 122.521712t24.856232 119.098782q0 24.568322-11.132521 57.134146t-31.702093 32.565823q-5.150391 0-11.132521-4.28666t-10.844611-10.012871-10.844611-14.843361-9.149141-15.131271-7.709591-14.843361-5.150391-10.012871q-0.57582-0.57582-1.72746-0.57582l-2.84711 2.27129q-33.717463 87.972509-75.400437 127.384192 11.420431 11.420431 35.125023 22.009122t39.411684 23.704592 20.281662 37.140394q-1.15164 2.27129-2.27129 9.149141t-3.99875 10.268791q-36.564574 55.406685-172.522087 55.406685-30.262543 0-63.116276-5.150391t-55.982505-11.420431-59.693346-17.146642q-8.573321-2.84711-13.147891-3.99875-7.997501-2.27129-26.263793-2.5592t-22.840862-0.86373q-23.416682 25.719963-72.841237 37.140394t-96.257919 11.420431q-19.993752 0-39.411684-0.86373t-53.135395-5.150391-57.709966-11.708341-42.546704-22.840862-18.554202-36.564574q0-22.840862 5.726211-34.005373t23.416682-27.703343q6.270041-1.15164 23.128772-7.421681t28.279163-6.845861q2.27129 0 7.997501-1.15164 1.15164-1.15164 1.15164-2.27129l-1.15164-1.72746q-27.415433-6.270041-61.708716-60.269166t-41.714964-89.412059l-2.84711-1.72746q-2.27129 0-6.845861 11.420431-10.268791 23.416682-31.126273 42.546704t-44.274164 21.433302l-0.57582 0q-2.27129 0-3.42293-2.5592t-2.84711-3.13502q-13.147891-30.838363-13.147891-57.134146 0-157.102905 143.955014-266.188816z" p-id="2367"></path></svg>