<?xml version="1.0" standalone="no"?><!DOCTYPE svg PUBLIC "-//W3C//DTD SVG 1.1//EN" "http://www.w3.org/Graphics/SVG/1.1/DTD/svg11.dtd"><svg t="1562770191991" class="icon" viewBox="0 0 1024 1024" version="1.1" xmlns="http://www.w3.org/2000/svg" p-id="1105" xmlns:xlink="http://www.w3.org/1999/xlink" width="200" height="200"><defs><style type="text/css"></style></defs><path d="M682.409135 315.751361c11.047614 0 21.978571 0.811482 32.821523 2.01796-29.490661-137.322575-176.304402-239.35132-343.883071-239.35132-187.352015 0-340.821339 127.703497-340.821339 289.864784 0 93.603865 51.058886 170.46951 136.381134 230.087329l-34.088376 102.528118 119.145587-59.747779c42.632983 8.438183 76.839039 17.114796 119.384018 17.114796 10.694573 0 21.300119-0.528026 31.816636-1.354857-6.658653-22.786982-10.516518-46.653553-10.516518-71.417563C392.646682 436.592566 520.513908 315.751361 682.409135 315.751361zM499.153414 223.342718c25.662473 0 42.662659 16.882506 42.662659 42.529629 0 25.544793-17.000186 42.662659-42.662659 42.662659-25.544793 0-51.176566-17.117866-51.176566-42.662659C447.977871 240.225223 473.609645 223.342718 499.153414 223.342718zM260.625856 308.535005c-25.541723 0-51.321876-17.117866-51.321876-42.662659 0-25.647123 25.780153-42.529629 51.321876-42.529629 25.543769 0 42.544979 16.882506 42.544979 42.529629C303.169811 291.417139 286.169625 308.535005 260.625856 308.535005z" p-id="1106"></path><path d="M993.473753 581.399603c0-136.263453-136.353504-247.335155-289.497417-247.335155-162.160263 0-289.880133 111.071701-289.880133 247.335155 0 136.498814 127.718847 247.335155 289.880133 247.335155 33.94102 0 68.173682-8.558933 102.263082-17.10354l93.483114 51.191916-25.631774-85.173868C942.502871 726.32432 993.473753 658.265248 993.473753 581.399603zM609.989755 538.752294c-16.97051 0-34.088376-16.882506-34.088376-34.103726 0-16.98279 17.117866-34.085306 34.088376-34.085306 25.780153 0 42.662659 17.10354 42.662659 34.085306C652.652414 521.869788 635.769908 538.752294 609.989755 538.752294zM797.460474 538.752294c-16.85283 0-33.853016-16.882506-33.853016-34.103726 0-16.98279 17.000186-34.085306 33.853016-34.085306 25.543769 0 42.659589 17.10354 42.659589 34.085306C840.120063 521.869788 823.004243 538.752294 797.460474 538.752294z" p-id="1107"></path></svg>